<?xml version="1.0" encoding="UTF-8"?>
<svg width="13px" height="11px" viewBox="0 0 13 11" version="1.1" xmlns="http://www.w3.org/2000/svg" xmlns:xlink="http://www.w3.org/1999/xlink">
    <!-- Generator: sketchtool 52.6 (67491) - http://www.bohemiancoding.com/sketch -->
    <title>B4DD1816-4F2D-4A7C-B636-9367A9D09BEB</title>
    <desc>Created with sketchtool.</desc>
    <g id="Symbols" stroke="none" stroke-width="1" fill="none" fill-rule="evenodd" fill-opacity="0.93138587">
        <g id="Footer" transform="translate(-923.000000, -79.000000)" fill="#FFFFFF" fill-rule="nonzero">
            <g id="Contact">
                <g transform="translate(923.000000, 37.000000)">
                    <g id="Group-8" transform="translate(0.000000, 38.000000)">
                        <g id="envelope" transform="translate(0.000000, 4.000000)">
                            <path d="M13,3.29352679 L13,9.05357143 C13,9.37276786 12.8863467,9.64601935 12.6590402,9.87332589 C12.4317336,10.1006324 12.1584821,10.2142857 11.8392857,10.2142857 L1.16071429,10.2142857 C0.841517857,10.2142857 0.568266369,10.1006324 0.340959821,9.87332589 C0.113653274,9.64601935 0,9.37276786 0,9.05357143 L0,3.29352679 C0.212797619,3.53050595 0.45703125,3.74088542 0.732700893,3.92466518 C2.48344494,5.11439732 3.68526786,5.94866071 4.33816964,6.42745536 C4.61383929,6.63058036 4.8375186,6.78896949 5.00920759,6.90262277 C5.18089658,7.01627604 5.4094122,7.13234747 5.69475446,7.25083705 C5.98009673,7.36932664 6.24609375,7.42857143 6.49274554,7.42857143 L6.50725446,7.42857143 C6.75390625,7.42857143 7.01990327,7.36932664 7.30524554,7.25083705 C7.5905878,7.13234747 7.81910342,7.01627604 7.99079241,6.90262277 C8.1624814,6.78896949 8.38616071,6.63058036 8.66183036,6.42745536 C9.48400298,5.83258929 10.688244,4.99832589 12.2745536,3.92466518 C12.5502232,3.73604911 12.7920387,3.52566964 13,3.29352679 Z M13,1.16071429 C13,1.54278274 12.8815104,1.90792411 12.6445312,2.25613839 C12.4075521,2.60435268 12.1125372,2.90178571 11.7594866,3.1484375 C9.94103423,4.41071429 8.8093378,5.19661458 8.36439732,5.50613839 C8.31603423,5.53999256 8.21326265,5.61374628 8.05608259,5.72739955 C7.89890253,5.84105283 7.76832217,5.93294271 7.66434152,6.0030692 C7.56036086,6.07319568 7.43461682,6.15178571 7.28710938,6.23883929 C7.13960193,6.32589286 7.00055804,6.39118304 6.86997768,6.43470982 C6.73939732,6.47823661 6.61848958,6.5 6.50725446,6.5 L6.49274554,6.5 C6.38151042,6.5 6.26060268,6.47823661 6.13002232,6.43470982 C5.99944196,6.39118304 5.86039807,6.32589286 5.71289062,6.23883929 C5.56538318,6.15178571 5.43963914,6.07319568 5.33565848,6.0030692 C5.23167783,5.93294271 5.10109747,5.84105283 4.94391741,5.72739955 C4.78673735,5.61374628 4.68396577,5.53999256 4.63560268,5.50613839 C4.19549851,5.19661458 3.56194196,4.75530134 2.73493304,4.18219866 C1.90792411,3.60909598 1.41220238,3.26450893 1.24776786,3.1484375 C0.947916667,2.9453125 0.66499256,2.66601562 0.398995536,2.31054688 C0.132998512,1.95507812 0,1.625 0,1.3203125 C0,0.943080357 0.100353423,0.628720238 0.301060268,0.377232143 C0.501767113,0.125744048 0.788318452,0 1.16071429,0 L11.8392857,0 C12.1536458,0 12.4256882,0.113653274 12.6554129,0.340959821 C12.8851376,0.568266369 13,0.841517857 13,1.16071429 Z" id="Shape"></path>
                        </g>
                    </g>
                </g>
            </g>
        </g>
    </g>
</svg>