<?xml version="1.0" encoding="UTF-8"?>
<svg width="13px" height="10px" viewBox="0 0 13 10" version="1.1" xmlns="http://www.w3.org/2000/svg" xmlns:xlink="http://www.w3.org/1999/xlink">
    <!-- Generator: sketchtool 52.6 (67491) - http://www.bohemiancoding.com/sketch -->
    <title>F7C8EACE-B1EA-44DA-AA4F-D2158D16B2DB</title>
    <desc>Created with sketchtool.</desc>
    <g id="Symbols" stroke="none" stroke-width="1" fill="none" fill-rule="evenodd">
        <g id="svg-twitter" transform="translate(0.000000, -2.000000)" fill="#00ACED">
            <g id="twitter" transform="translate(0.000000, 2.000000)">
                <path d="M11.663737,2.49217843 C11.671989,2.6015482 11.671989,2.71094203 11.671989,2.8203118 C11.671989,6.15623429 8.99116012,10 4.09138512,10 C2.58185579,10 1.17957687,9.58591948 0,8.86720037 C0.214475447,8.89062301 0.420673518,8.89843857 0.643400951,8.89843857 C1.88894293,8.89843857 3.03553725,8.50001323 3.95115215,7.82032383 C2.77982726,7.79687714 1.79822187,7.07031842 1.46001742,6.0703112 C1.62500635,6.09373384 1.78996988,6.10936497 1.96321079,6.10936497 C2.20241681,6.10936497 2.44164821,6.07810272 2.66435025,6.02344188 C1.44353884,5.78904715 0.527898546,4.77343286 0.527898546,3.54687053 L0.527898546,3.51563233 C0.882581573,3.70313368 1.29505389,3.82031902 1.73220599,3.8359261 C1.01456256,3.38279182 0.544402517,2.60936377 0.544402517,1.73435745 C0.544402517,1.26561609 0.676358111,0.835928501 0.907337529,0.460925795 C2.21889539,1.99217482 4.19035817,2.99215798 6.40100157,3.10155181 C6.35976703,2.91405046 6.33501107,2.71875759 6.33501107,2.52344068 C6.33501107,1.13279963 7.52283993,0 8.99936133,0 C9.76649128,0 10.4593787,0.304686692 10.9460681,0.796874737 C11.5482092,0.68750496 12.1256196,0.47655692 12.637065,0.187501353 C12.4390681,0.773452098 12.0183946,1.26564014 11.4657401,1.57811835 C12.001916,1.52345751 12.521588,1.38280143 13,1.18750857 C12.6371158,1.68748813 12.1834089,2.1327828 11.663737,2.49217843 Z" id="Path"></path>
            </g>
        </g>
    </g>
</svg>